<svg width="1553" height="1200" viewBox="0 0 1553 1200" fill="none" xmlns="http://www.w3.org/2000/svg">
<path d="M143.179 630.402C143.179 638.119 143.179 646.649 143.592 655.577C143.592 663.708 143.99 671.013 143.99 678.361C143.99 697.043 143.179 713.29 142.369 727.501C139.525 747.437 132.23 759.598 120.868 764.524C109.507 769.451 99.3823 771.787 90.8646 771.787C83.4117 771.764 76.0116 770.533 68.9519 768.141C61.0532 765.437 53.7827 761.161 47.578 755.569C41.3732 749.977 36.3626 743.186 32.8478 735.604C25.5957 718.132 19.0688 685.637 13.3808 638.931C7.29476 592.211 3.65449 547.541 2.00499 505.705C0.810529 463.869 0 431.36 0 408.677C0 371.312 1.2229 334.346 3.24212 297.38C6.89661 237.616 14.2198 186.026 25.5957 142.567C36.9715 99.1077 53.1821 71.0841 74.2701 58.5533C149.692 19.5177 215.255 0 270.959 0C274.599 0 278.253 0.412949 281.908 0.412949C339.854 3.24663 381.688 20.7186 408.109 52.8005C434.074 84.8965 447.455 122.674 447.455 165.721C447.362 176.193 446.683 186.651 445.421 197.048C437.316 251.87 421.902 300.997 399.591 344.485C378.553 385.895 352.24 424.397 321.311 459.028C294.229 489.352 264.767 517.456 233.205 543.07C203.997 566.224 178.843 584.906 157.356 599.53C152.479 603.19 148.014 606.436 143.563 609.27C143.179 615.778 143.179 622.684 143.179 630.402ZM210.453 411.525C232.361 379.03 252.643 341.66 271.3 299.416C289.679 257.866 302.912 214.22 310.703 169.451C311.629 162.719 312.171 155.94 312.324 149.146C312.3 137.731 310.8 126.369 307.859 115.341C302.996 97.883 295.289 85.281 285.107 76.7515C274.926 68.222 263.607 63.7507 251.847 63.7507C246.8 63.7107 241.765 64.2602 236.845 65.3883C215.345 69.8453 201.95 83.6577 197.03 106.413C182.979 166.093 172.851 226.632 166.713 287.64C160.215 350.593 154.953 413.148 151.299 475.29C150.886 478.137 150.886 480.985 150.488 483.833C168.334 468.326 188.199 444.361 210.453 411.525Z" fill="#C6D300"/>
<path d="M674.958 620.249C668.872 592.624 664.407 566.622 660.738 542.259C658.704 529.258 656.671 518.293 655.05 509.351C632.739 512.597 607.598 517.482 579.614 523.163C574.338 524.388 569.063 525.598 563.787 526.41V601.154C562.578 619.437 554.061 632.481 538.191 639.33C522.322 646.179 507.775 649.483 494.38 649.483C486.888 649.453 479.42 648.636 472.098 647.048C450.597 642.178 435.994 629.585 428.287 609.27C422.599 584.493 420.167 556.47 420.167 524.388C420.167 506.104 420.992 487.009 422.613 466.304C428.068 407.997 440.598 350.573 459.926 295.301C479.393 238.428 506.567 190.099 541.86 151.097C562.138 130.791 582.827 119.413 603.517 116.167C624.207 112.92 639.209 111.297 648.125 111.297C669.618 111.292 690.881 115.717 710.592 124.298C738.179 136.472 755.627 158.003 762.523 188.874C772.25 277.017 780.36 375.043 786.853 482.951C791.318 549.976 795.385 609.683 799.836 661.672V662.484C799.836 675.484 793.338 685.637 779.928 692.543C766.97 699.547 752.463 703.18 737.738 703.109H735.306C719.082 702.297 706.867 697.015 699.217 686.449C689.149 669.803 681.044 647.461 674.958 620.249ZM644.94 396.032C644.541 376.937 643.731 358.254 642.508 339.572C641.285 320.89 639.664 305.041 637.645 292.04C635.626 279.039 632.767 271.735 629.113 270.111C628.346 269.786 627.512 269.649 626.681 269.712C620.183 269.712 613.286 276.206 607.2 288.794C599.905 303.033 593.421 320.477 587.293 341.594C581.164 362.711 576.343 382.633 572.689 402.127C569.034 421.208 566.603 434.621 566.19 442.738C578.775 441.926 592.156 441.528 605.536 440.716C619.33 440.303 633.123 439.89 647.314 439.078C646.561 426.904 645.75 412.279 644.94 396.032Z" fill="#C6D300"/>
<path d="M978.323 596.64C978.323 605.183 972.635 613.727 961.259 621.416C947.879 631.171 936.119 636.453 925.568 637.265C915.017 638.077 908.945 638.475 906.911 638.475C890.274 638.475 875.272 631.982 862.289 619.793C843.221 598.263 831.006 569.428 824.977 532.462C819.084 497.297 816.097 461.705 816.047 426.049C816.047 413.447 816.047 401.272 816.857 388.271C819.303 340.341 825.389 296.882 834.703 258.292C844.017 219.703 855.393 193.701 868.831 179.974C876.602 173.378 886.247 169.393 896.403 168.583C906.143 168.17 912.229 168.17 914.249 168.17C930.245 168.101 946.188 170.014 961.714 173.866C980.371 178.736 994.562 185.257 1004.7 193.36C1014.44 201.476 1019.72 210.006 1019.72 219.347C1019.55 222.511 1019.02 225.645 1018.14 228.688C1009.61 252.653 1000.69 287.982 990.965 334.702C981.238 381.422 975.138 420.396 972.294 451.68C969.862 483.363 968.654 505.292 968.654 518.293C968.654 547.541 971.498 571.905 977.569 591.812C978.017 593.384 978.27 595.006 978.323 596.64Z" fill="#C6D300"/>
<path d="M1178.82 635.684C1178.82 642.178 1178.82 648.671 1179.23 655.99C1179.23 662.483 1179.63 668.578 1179.63 674.673C1179.63 689.297 1178.82 702.696 1178.01 714.073C1175.17 729.908 1167.87 740.061 1156.51 744.133C1145.14 747.779 1135.01 749.829 1126.49 749.829C1119.1 749.885 1111.73 748.927 1104.59 746.981C1088.37 742.111 1076.16 733.582 1068.49 720.581C1061.19 706.341 1054.7 680.345 1049.02 642.591C1043.22 606.954 1039.42 571.018 1037.65 534.954C1036.44 501.248 1035.63 475.247 1035.63 456.565C1035.63 426.505 1036.84 396.445 1038.87 366.855C1042.53 318.924 1049.82 277.145 1061.18 241.746C1072.56 206.816 1088.75 184.075 1109.86 173.923C1185.22 142.595 1251 126.804 1306.57 126.804C1310.23 126.804 1313.88 127.202 1317.52 127.202C1375.54 129.239 1417.32 143.45 1443.68 169.451C1469.63 195.439 1483.03 225.911 1483.03 260.428C1482.93 269.008 1482.25 277.571 1480.99 286.059C1472.89 330.33 1457.47 370.073 1435.16 405.06C1413.31 439.272 1386.97 470.401 1356.87 497.617C1327.21 524.017 1297.6 546.801 1268.81 564.999C1239.6 583.681 1214.44 599.174 1192.94 610.893C1188.08 613.741 1183.61 616.176 1179.16 618.625C1178.82 623.894 1178.82 629.59 1178.82 635.684ZM1246.08 458.985C1269.22 430.818 1289.6 400.486 1306.93 368.407C1325.04 335.568 1338.29 300.27 1346.27 263.618C1347.2 258.108 1347.74 252.542 1347.9 246.957C1347.83 237.709 1346.33 228.528 1343.43 219.746C1338.57 205.933 1330.86 195.367 1320.68 188.418C1310.88 181.72 1299.28 178.173 1287.42 178.251C1282.39 178.272 1277.37 178.681 1272.4 179.476C1250.9 183.136 1237.52 194.1 1232.59 212.782C1218.56 260.632 1208.38 309.531 1202.16 359.009C1195.67 409.787 1190.4 460.11 1186.74 510.518C1186.34 512.54 1186.34 514.99 1185.93 517.425C1203.91 504.879 1223.77 485.385 1246.08 458.985Z" fill="#C6D300"/>
<path d="M354.216 791.266C345.334 815.078 338.349 839.556 333.327 864.472C329.416 886.373 327.454 903.033 327.454 914.809C327.272 920.844 327.821 926.878 329.089 932.78C342.62 931.135 356.242 930.369 369.872 930.487H374.777C390.809 930.63 406.779 932.491 422.414 936.04C438.411 940.626 447.227 947.162 449.503 955.976C451.792 964.52 452.773 970.685 452.773 975.256C452.864 982.459 451.064 989.559 447.554 995.847C442.653 1004.39 436.126 1008.64 427.974 1008.59C426.223 1008.64 424.472 1008.53 422.741 1008.26C416.245 1006.57 409.543 1005.8 402.833 1005.99C395.301 1006.11 387.782 1006.65 380.309 1007.61C363.105 1009.58 346.404 1014.68 331.023 1022.65C328.421 1024.94 327.113 1030.16 327.113 1038.99V1056.58C327.113 1068.67 327.44 1082.07 328.094 1096.78C329.075 1114.75 330.056 1130.44 331.023 1144.15C331.35 1151.34 331.677 1156.97 332.004 1160.5C331.672 1176.19 325.473 1186.63 313.405 1191.83C301.005 1197.38 289.587 1200 279.462 1200C272.665 1199.87 265.896 1199.1 259.241 1197.71C241.282 1193.79 227.574 1183.33 218.118 1166.67C201.354 1130.85 191.075 1092.34 187.758 1052.93C184.497 1013.72 182.867 982.348 182.867 958.824C182.81 927.484 184.552 896.167 188.085 865.028C194.285 810.789 204.41 766.005 219.099 731.375C228.134 711.604 243.703 695.56 263.18 685.95C282.761 676.139 300.379 670.586 316.05 669.603C331.691 668.293 342.811 667.652 349.665 667.652C366.952 667.683 384.203 669.212 401.226 672.223C424.717 676.495 444.952 682.348 461.916 690.194C478.568 698.367 488.678 708.164 492.93 719.613C496.84 730.72 499.13 740.516 499.13 749.017C499.013 755.181 498.245 761.314 496.84 767.315C493.584 782.025 487.697 794.769 478.895 805.221C470.093 815.673 460.295 821.241 449.517 822.223C437.771 822.223 428.969 817.638 423.409 808.169C417.133 797.678 412.099 786.491 408.407 774.834C405.464 766.29 402.52 757.846 398.937 750C395.653 742.663 390.872 736.096 384.902 730.72C374.123 743.891 363.672 764.154 354.216 791.266Z" fill="white"/>
<path d="M792.484 846.174C783.355 818.065 768.993 796.507 750.067 781.142C724.613 762.517 694.278 751.733 659.06 748.79C652.206 748.135 645.025 748.135 638.171 748.135C609.582 748.322 581.226 753.293 554.274 762.844C525.55 772.641 504.348 788.661 489.659 810.889C486.062 817.41 484.441 822.978 484.441 827.549C484.441 831.137 486.062 835.068 489.332 839.638C493.302 844.872 498.301 849.234 504.021 852.454C507.022 854.119 509.767 856.21 512.169 858.663C513.108 859.642 513.685 860.913 513.805 862.265C513.78 863.32 513.438 864.342 512.823 865.199C501.078 880.862 490.968 901.481 482.478 927.625C474.615 952.004 470.651 977.476 470.733 1003.09C470.733 1005.06 470.733 1013.55 471.06 1028.58C471.387 1043.62 479.592 1061.92 495.532 1083.82C511.174 1105.71 537.623 1119.76 574.836 1126.62C591.331 1129.43 608.031 1130.86 624.762 1130.9C655.603 1130.92 686.053 1123.97 713.835 1110.56C741.89 1097.16 764.087 1075.26 780.071 1044.87C796.158 1014.74 805.119 981.311 806.263 947.162C806.591 941.921 806.59 937.023 806.59 932.125C806.663 902.891 801.897 873.847 792.484 846.174ZM687.414 979.187C683.867 1002.24 676.823 1024.61 666.525 1045.53C656.728 1065.46 645.309 1076.86 631.929 1079.83C614.296 1077.23 601.911 1069.39 594.729 1055.98C588.198 1044.22 584.932 1030.16 584.932 1013.82C584.932 1011.21 585.259 1004.68 585.913 993.554C586.24 982.447 590.478 966.499 597.659 945.852C604.751 925.793 614.304 906.694 626.098 888.993C628.213 885.57 629.34 881.627 629.355 877.601C629.355 871.065 625.444 863.874 616.955 855.715C608.807 847.541 595.099 843.611 575.846 843.298C575.407 841.475 575.187 839.606 575.191 837.73C575.191 833.458 576.5 826.623 579.457 818.122C582.401 809.308 587.989 800.152 595.455 791.323C602.92 783.178 611.694 778.907 622.145 778.907L624.748 779.234C645.964 781.854 662.274 793.616 673.095 813.552C683.916 833.487 690.386 857.993 692.676 886.757C693.33 895.301 693.657 904.073 693.657 912.574C693.486 934.916 691.398 957.202 687.414 979.187Z" fill="white"/>
<path d="M1552.8 856.641C1552.74 865.374 1552.19 874.097 1551.17 882.77C1546.28 921.673 1533.88 960.561 1513.97 999.122C1494.43 1037.05 1469.96 1072.21 1441.19 1103.7C1412.75 1134.74 1385.07 1157.61 1358.63 1172.05C1332.2 1186.76 1308.71 1193.95 1288.8 1193.95C1282.55 1193.96 1276.31 1193.3 1270.2 1191.98C1251.59 1187.08 1236.58 1173.03 1225.15 1149.51C1213.77 1126.3 1204.92 1097.55 1199.06 1063.23C1193.06 1029.63 1189.26 995.679 1187.68 961.586C1186.05 928.579 1185.08 898.519 1185.08 872.048C1185.08 863.233 1185.41 854.405 1185.41 845.904C1186.37 811.586 1187.35 782.509 1188.99 759.042C1190.95 738.452 1201.79 722.105 1221.7 710.343C1241.28 698.581 1260.86 691.717 1280.76 689.752C1300.67 687.787 1315.69 686.819 1326.13 686.819C1346.69 686.811 1367.22 688.559 1387.48 692.045C1419.46 697.598 1448.5 707.395 1474.94 721.777C1501.04 735.832 1520.62 753.802 1533.35 776.03C1546.33 800.899 1553.01 828.581 1552.8 856.641ZM1403.72 959.251C1415.47 920.035 1421.34 888.665 1421.34 864.8C1421.58 848.081 1419.18 831.43 1414.23 815.46C1402.86 780.16 1381.28 758.928 1349.29 752.065H1347.67C1337.22 752.065 1328.74 761.862 1322.86 781.797C1316.66 803.043 1312.42 829.514 1310.06 860.884C1307.78 892.581 1306.47 923.624 1306.47 954.666V963.21C1306.8 997.2 1308.11 1026.6 1310.06 1051.13C1312.02 1075.33 1314.32 1090.01 1317.24 1094.26C1363.25 1043.56 1392.3 998.795 1403.72 959.251Z" fill="white"/>
<path d="M1148.21 864.145C1140.7 840.948 1125.36 820.002 1101.86 802.06C1078.37 784.118 1045.41 773.581 1003.31 771.018C997.762 770.69 992.216 770.69 987.31 770.69C965.739 770.69 947.495 772.627 932.749 776.486L931.881 776.714C927.992 777.751 924.165 779.011 920.42 780.487C908.205 785.143 899.46 791.067 894.199 798.144C870.153 818.208 841.671 855.815 830.21 924.734C830.025 925.802 829.854 926.884 829.669 927.967V928.066C829.342 930.131 829.029 932.239 828.745 934.417C827.418 944.162 826.763 953.987 826.783 963.822C826.783 979.186 828.745 997.157 832.655 1018.4C836.58 1039.32 846.363 1057.95 861.706 1074.28C878.331 1089.99 898.25 1101.79 920.008 1108.81L980.612 940.056C982.034 936.268 984.594 933.919 987.452 933.919H998.828C1001.67 933.919 1004.32 936.297 1005.67 940.085L1064.64 1105.66C1078.24 1100.27 1090.91 1092.77 1102.19 1083.43C1115.9 1071.67 1127.97 1053.69 1138.41 1030.16C1148.53 1006.64 1155.06 980.497 1157.99 951.733C1158.64 944.613 1158.97 937.678 1158.97 930.487C1158.91 909.569 1155.39 887.355 1148.21 864.145Z" fill="white"/>
<path d="M1050.37 901.509C1047.22 895.657 1042.95 892.41 1034.04 888.865C1018.58 882.613 1002.1 879.264 985.433 878.982C972.052 878.797 958.6 880.478 945.291 882.158C941.025 882.685 937.057 885.874 932.962 887.854L933.559 889.463L1050.37 901.509Z" fill="#EFEFEF"/>
<path d="M1019.32 880.549C1020.37 872.446 1015.2 863.105 1006.39 858.235C996.283 852.639 986.343 853.422 977.129 860.2C971.953 864.002 968.241 868.986 968.44 875.978L978.224 861.012C977.996 865.141 976.375 868.431 975.749 871.891C975.522 873.158 977.498 876.02 978.721 876.163C992.216 877.857 1005.77 879.153 1019.32 880.549Z" fill="#EFEFEF"/>
<path d="M1035.07 904.485C1029.06 903.859 1023.87 903.232 1018.65 902.862C1017.43 902.91 1016.28 903.419 1015.42 904.286C1012.12 907.59 1009 911.064 1005.81 914.453C1014.31 917.586 1028.09 913.243 1035.07 904.485Z" fill="#EFEFEF"/>
<path d="M948.561 896.198C950.111 904.001 965.454 912.944 973.787 910.922C969.649 898.961 961.046 893.963 948.561 896.198Z" fill="#EFEFEF"/>
<path d="M989.244 911.434C989.224 908.422 989.044 905.413 988.704 902.421C988.558 901.787 988.263 901.197 987.842 900.702C987.421 900.206 986.888 899.819 986.286 899.573C981.523 898.818 976.702 898.462 971.754 897.949C973.232 909.071 977.399 912.246 989.244 911.434Z" fill="#EFEFEF"/>
<path d="M991.292 911.634C1002.24 914.895 1009.02 911.463 1010.49 901.922L1004 901.253C993.24 900.142 993.24 900.142 991.292 911.634Z" fill="#EFEFEF"/>
<path d="M932.82 894.247C935.578 901.082 948.462 908.9 956.012 908.871C952.671 906.023 948.177 903.56 945.731 899.772C942.404 894.731 938.309 893.905 932.82 894.247Z" fill="#EFEFEF"/>
<path d="M1024.07 916.646C1033.24 915.507 1042.7 914.453 1049.74 906.55C1046.39 905.753 1042.63 904.727 1040.18 906.023C1034.48 908.971 1029.37 913.058 1024.07 916.646Z" fill="#EFEFEF"/>
<path d="M1050.37 901.509L933.602 889.463L933.005 887.854C937.1 885.874 941.053 882.685 945.333 882.158C958.643 880.478 972.095 878.797 985.476 878.982C1002.13 879.269 1018.59 882.618 1034.04 888.865C1042.95 892.41 1047.22 895.671 1050.37 901.509Z" fill="#C6D300"/>
<path d="M1019.32 880.549C1005.77 879.125 992.216 877.857 978.721 876.177C977.498 876.021 975.522 873.158 975.749 871.905C976.375 868.445 977.996 865.156 978.224 861.026L968.44 875.992C968.241 869 971.953 864.017 977.129 860.215C986.343 853.437 996.283 852.653 1006.39 858.249C1015.2 863.105 1020.37 872.446 1019.32 880.549Z" fill="#C6D300"/>
<path d="M1035.07 904.486C1028.05 913.243 1014.31 917.586 1005.81 914.382C1009 910.993 1012.12 907.519 1015.42 904.215C1016.28 903.348 1017.43 902.839 1018.65 902.791C1023.83 903.232 1029.06 903.859 1035.07 904.486Z" fill="#C6D300"/>
<path d="M948.561 896.198C961.046 893.963 969.649 898.961 973.787 910.922C965.525 912.944 950.111 904.001 948.561 896.198Z" fill="#C6D300"/>
<path d="M989.244 911.435C977.399 912.246 973.232 909.071 971.754 897.964C976.702 898.476 981.523 898.833 986.286 899.587C986.888 899.833 987.421 900.22 987.842 900.716C988.263 901.212 988.558 901.801 988.704 902.435C989.043 905.423 989.224 908.427 989.244 911.435Z" fill="#C6D300"/>
<path d="M991.292 911.634C993.24 900.142 993.24 900.142 1004 901.253L1010.49 901.922C1009.02 911.463 1002.24 914.895 991.292 911.634Z" fill="#C6D300"/>
<path d="M932.82 894.247C938.38 893.891 942.475 894.717 945.731 899.772C948.177 903.56 952.671 906.023 956.012 908.871C948.462 908.914 935.507 901.097 932.82 894.247Z" fill="#C6D300"/>
<path d="M1024.07 916.646C1029.37 913.058 1034.48 908.971 1040.18 906.023C1042.68 904.727 1046.39 905.753 1049.74 906.55C1042.7 914.453 1033.24 915.507 1024.07 916.646Z" fill="#C6D300"/>
<path d="M1022.69 1026.03C1021.79 1025.14 1020.71 1024.43 1019.75 1023.61C1019.03 1023.11 1018.38 1022.53 1017.8 1021.88C1017.45 1021.22 1016.97 1020.65 1016.37 1020.2C1015.78 1019.76 1015.1 1019.45 1014.37 1019.3C1014.1 1019.3 1013.84 1019 1013.59 1018.84L1009.01 1016.1C1008.36 1015.68 1007.72 1015.24 1007.08 1014.79C1006.22 1014.06 1005.31 1013.42 1004.35 1012.86C1002.4 1011.97 1000.31 1011.44 998.359 1010.49C997.644 1010.12 996.863 1009.91 996.064 1009.85C995.264 1009.8 994.461 1009.91 993.705 1010.18C992.949 1010.44 992.254 1010.86 991.664 1011.4C991.073 1011.94 990.598 1012.6 990.268 1013.33C990.057 1013.86 989.711 1014.31 989.267 1014.66C988.822 1015 988.294 1015.22 987.737 1015.3C986.951 1015.37 986.161 1015.37 985.376 1015.3C984.409 1016.94 983.556 1018.66 982.433 1020.2C981.309 1021.73 979.93 1023.04 978.664 1024.47C978.352 1024.82 978.025 1025.17 977.697 1025.52C977.296 1026.06 976.817 1026.54 976.275 1026.95C974.569 1027.94 972.806 1028.81 971.043 1029.71C968.981 1030.75 966.905 1031.79 964.814 1032.77C964.032 1033.15 963.392 1033.44 964.018 1034.48C964.174 1034.74 963.933 1035.33 963.719 1035.68C962.397 1037.87 961.657 1040.36 961.572 1042.92C961.607 1045.4 960.888 1047.84 959.51 1049.9C959.26 1050.31 959.1 1050.76 959.041 1051.24C958.913 1052.09 959.141 1053.03 960.065 1053.08C960.676 1053.08 961.373 1052.48 961.942 1052.01C962.184 1051.81 962.212 1051.3 962.255 1050.9C962.397 1049.91 962.482 1048.93 962.553 1048.26C964.288 1047.55 965.881 1047.05 967.317 1046.28C971.89 1043.74 977.21 1042.89 982.347 1043.88C981.949 1044.43 981.608 1044.86 981.295 1045.3C980.892 1045.82 980.539 1046.37 980.243 1046.95C979.93 1047.69 979.973 1048.53 980.812 1048.88C981.651 1049.22 982.234 1048.55 982.418 1047.79C982.76 1046.71 982.987 1045.59 983.343 1044.52C983.442 1044.2 983.784 1043.79 984.04 1043.78C984.919 1043.78 985.797 1043.83 986.67 1043.93L986.528 1044.42C987.694 1042.99 987.708 1041.43 986.628 1040.69C987.077 1039.72 987.805 1038.91 988.717 1038.36C989.629 1037.82 990.684 1037.55 991.747 1037.61C991.747 1037.77 991.747 1037.9 991.747 1037.92C989.132 1040.04 987.349 1043.01 986.713 1046.31C986.262 1047.59 985.705 1048.83 985.049 1050.01C984.836 1050.48 984.651 1050.95 984.338 1051.67L985.149 1051.38C985.177 1051.62 985.177 1051.87 985.149 1052.11C984.992 1052.72 984.807 1053.39 983.954 1053.15C983.101 1052.9 983.314 1052.14 983.513 1051.52C983.726 1050.95 983.968 1050.39 984.239 1049.84C983.715 1050.47 983.302 1051.18 983.016 1051.95C982.918 1052.28 982.949 1052.63 983.101 1052.93C983.253 1053.24 983.515 1053.47 983.833 1053.59C984.152 1053.71 984.504 1053.7 984.817 1053.57C985.13 1053.43 985.381 1053.19 985.518 1052.88C985.889 1052.04 986.147 1051.16 986.286 1050.26C986.869 1048.19 987.41 1046.13 988.05 1044.08C988.24 1043.67 988.574 1043.34 988.988 1043.17C991.832 1041.98 994.832 1041.01 997.619 1039.68C1003.26 1036.71 1009.48 1035 1015.85 1034.66C1017.08 1034.74 1018.32 1034.58 1019.48 1034.17C1020.65 1033.76 1021.72 1033.12 1022.63 1032.29C1023.05 1031.88 1023.38 1031.4 1023.61 1030.86C1023.84 1030.33 1023.96 1029.75 1023.97 1029.17C1023.97 1028.59 1023.86 1028.01 1023.64 1027.47C1023.42 1026.94 1023.1 1026.45 1022.69 1026.03ZM1014.5 1029.07L1012.55 1026.97C1014.68 1027.19 1015.1 1027.83 1014.5 1029.07ZM996.368 1010.73C997.344 1010.96 998.296 1011.28 999.212 1011.68C1000.63 1012.19 1002.06 1012.71 1003.48 1013.29C1004.31 1013.54 1005.08 1013.96 1005.74 1014.53C1006.83 1015.74 1008.23 1016.63 1009.79 1017.11C1010.68 1017.36 1011.48 1017.84 1012.13 1018.5C1012.77 1019.15 1013.24 1019.96 1013.49 1020.85L1009.05 1018.56L1009.69 1018.33C1008.15 1017.15 1006.27 1016.48 1004.33 1016.42C1003.76 1016.44 1003.2 1016.3 1002.7 1016.02C1002.2 1015.75 1001.78 1015.35 1001.49 1014.86C1000.88 1014.13 1000.08 1013.6 999.169 1013.35C998.259 1013.05 997.648 1013.99 998.018 1014.9L997.79 1015.17C996.982 1014.58 996.268 1013.88 995.671 1013.08C995.06 1011.95 994.349 1011.98 993.41 1012.34L991.476 1013.09C991.891 1012.19 992.605 1011.46 993.498 1011.03C994.391 1010.6 995.405 1010.49 996.368 1010.73ZM967.673 1042.95L968.227 1041.7C967.232 1042.03 966.464 1042.27 965.696 1042.54C964.43 1042.98 964.274 1042.85 964.018 1041.51C963.942 1041.15 963.837 1040.79 963.705 1040.45L963.336 1040.52C963.561 1041.55 963.718 1042.61 963.805 1043.66C963.762 1044.43 963.584 1045.18 963.279 1045.88C962.815 1047.3 962.264 1048.68 961.629 1050.03C961.154 1050.73 960.596 1051.37 959.965 1051.94L959.624 1051.68C959.68 1051.22 959.809 1050.77 960.008 1050.36C961.956 1047.78 962.013 1044.66 962.241 1041.71C962.426 1039.57 963.26 1037.54 964.629 1035.89C966.279 1038.96 969.109 1040.03 972.28 1040.56L972.138 1040.96L967.872 1043.17L967.673 1042.95ZM971.313 1043.79V1043.44L975.991 1042.7V1042.87L971.313 1043.79ZM983.144 1043.21L982.973 1044.38C982.731 1045.39 982.546 1046.41 982.234 1047.39C982.044 1047.85 981.763 1048.25 981.409 1048.59C981.409 1048.66 980.797 1048.46 980.783 1048.35C980.712 1047.86 980.584 1047.24 980.783 1046.92C981.453 1046.04 982.174 1045.19 982.945 1044.39C982.703 1041.73 981.878 1041.14 978.679 1041.41V1041.03C979.432 1040.93 980.101 1040.8 980.911 1040.77C981.722 1040.74 982.632 1040.77 983.542 1040.77C983.371 1041.58 983.257 1042.34 983.144 1043.21ZM983.314 1032.51C981.793 1031.2 980.129 1031.86 978.721 1033.04C979.092 1033.94 979.524 1034.82 980.015 1035.66C980.396 1036.11 980.885 1036.45 981.437 1036.66C981.648 1036.72 981.841 1036.84 982.003 1036.99C982.165 1037.14 982.291 1037.32 982.372 1037.53C982.454 1037.74 982.489 1037.96 982.475 1038.18C982.461 1038.4 982.398 1038.61 982.29 1038.81C981.921 1039.86 981.196 1039.56 980.456 1039.41C979.134 1039.11 977.783 1038.84 976.261 1038.52C977.005 1036.95 977.285 1035.2 977.068 1033.47C976.851 1031.74 976.147 1030.11 975.038 1028.77C976.702 1027.34 978.181 1025.84 980.357 1028.04L980.442 1027.5L978.167 1026.08L984.495 1018.62C984.857 1019.8 985.146 1021 985.362 1022.22C985.362 1022.73 984.779 1023.32 984.793 1023.86C984.793 1025.08 984.623 1025.69 983.229 1026.11C981.537 1026.6 981.807 1029.84 983.385 1031.03C984.113 1031.44 984.744 1032.01 985.234 1032.68C985.742 1033.93 986.146 1035.21 986.443 1036.52C985.528 1035.09 984.481 1033.75 983.314 1032.51ZM988.22 1033.43C987.763 1033.21 987.396 1032.83 987.182 1032.37C987.111 1032.26 987.68 1031.83 987.893 1031.52C988.106 1031.2 988.405 1030.62 988.661 1030.18C988.259 1029.91 987.811 1029.71 987.339 1029.59C986.145 1029.67 984.949 1029.67 983.755 1029.59C982.248 1029.32 983.016 1028.17 983.144 1027.29C983.272 1026.41 983.94 1026.6 984.637 1026.79C985.588 1027.06 986.577 1027.18 987.566 1027.13C987.879 1027.13 988.135 1026.32 988.419 1025.89C987.978 1025.78 987.481 1025.49 987.111 1025.61C986.428 1025.82 985.76 1025.89 985.689 1025.14C985.607 1024.46 985.774 1023.77 986.158 1023.2C986.414 1022.86 987.182 1022.87 987.381 1022.83C989.969 1022.83 991.647 1024.88 992.387 1027.17C992.738 1028.77 992.495 1030.43 991.704 1031.86C991.382 1032.46 990.873 1032.94 990.254 1033.22C989.635 1033.5 988.941 1033.57 988.277 1033.43H988.22ZM991.633 1036.93C991.377 1036.76 991.505 1035.96 991.448 1035.26L989.884 1036.05C992.301 1032.74 994.292 1029.59 992.486 1025.54C993.254 1025.22 993.908 1025.02 994.448 1024.75C996.681 1023.76 997.619 1021.68 998.572 1019.66C998.985 1018.79 998.131 1018.77 997.634 1018.63L988.675 1016.15C988.519 1016.15 988.377 1016.02 987.95 1015.84C989.23 1015.41 990.268 1015.1 991.292 1014.71C992.315 1014.33 993.24 1013.49 994.008 1013.67C994.776 1013.86 995.117 1015.2 995.799 1015.88C996.399 1016.45 997.098 1016.9 997.861 1017.21C1000.41 1018.26 1003.15 1019.09 1004.97 1021.36C1006.73 1023.77 1009.07 1025.68 1011.78 1026.9C1012.49 1027.2 1012.74 1028.57 1012.96 1029.58C1012.01 1027.84 1010.45 1026.53 1008.58 1025.88C1008.38 1026.96 1008.2 1027.96 1008.03 1028.97C1007.34 1026.99 1006.05 1025.29 1004.35 1024.08C1003.14 1023.16 1001.65 1022.68 1000.13 1022.72C998.613 1022.76 997.154 1023.32 995.998 1024.31C994.928 1025.37 994.268 1026.77 994.138 1028.27C994.007 1029.78 994.415 1031.27 995.287 1032.5C995.828 1033.34 995.941 1034.01 994.903 1034.55C994.596 1034.75 994.318 1035 994.079 1035.28L994.207 1035.46L996.397 1034.92L996.567 1035.26C995.559 1035.95 994.505 1036.57 993.41 1037.11C993.119 1037.21 992.808 1037.25 992.501 1037.22C992.194 1037.19 991.897 1037.09 991.633 1036.93ZM1017.43 1034.08C1010.14 1034.25 1002.99 1036.16 996.581 1039.65C996.055 1039.92 995.486 1040.12 994.847 1040.39C995.164 1039.57 995.706 1038.85 996.41 1038.33C997.114 1037.8 997.952 1037.48 998.828 1037.41C999.971 1037.14 1001.04 1036.63 1001.97 1035.9C1003.39 1034.96 1004.69 1033.65 1006.63 1033.65C1007.76 1033.65 1008.88 1033.33 1009.99 1033.38C1011.14 1033.43 1012.28 1033.15 1013.28 1032.59C1014.29 1032.03 1015.11 1031.2 1015.68 1030.19C1016.16 1029.48 1016.77 1028.88 1017.48 1028.41C1018.19 1027.94 1018.99 1027.62 1019.83 1027.46C1020.29 1027.3 1020.73 1027.11 1021.17 1026.9C1021.72 1027.23 1022.59 1027.46 1022.94 1028C1023.24 1028.5 1023.37 1029.07 1023.33 1029.64C1023.29 1030.22 1023.08 1030.77 1022.72 1031.22C1022.16 1032.11 1021.38 1032.85 1020.45 1033.35C1019.52 1033.85 1018.48 1034.1 1017.43 1034.07V1034.08Z" fill="#C6D300"/>
</svg>
